<?xml version="1.0" encoding="utf-8"?>
<!-- Generator: Adobe Illustrator 21.1.0, SVG Export Plug-In . SVG Version: 6.00 Build 0)  -->
<svg version="1.1" id="Layer_1" xmlns="http://www.w3.org/2000/svg" xmlns:xlink="http://www.w3.org/1999/xlink" x="0px" y="0px"
	 viewBox="0 0 46.8 40.2" style="enable-background:new 0 0 46.8 40.2;" xml:space="preserve">
<style type="text/css">
	.st0{fill:#FFFFFF;}
	.st1{display:none;}
	.st2{display:inline;}
</style>
<g>
	<path class="st0" d="M43.5,6.8c0,8.9,0,17.8,0,26.7c0,0.1-0.1,0.3-0.1,0.4c-0.3,1.9-1.2,3.4-2.6,4.6c-1.2,1-2.5,1.4-4,1.7
		c-8.9,0-17.8,0-26.7,0c-0.1,0-0.2-0.1-0.4-0.1c-1.9-0.3-3.4-1.2-4.7-2.7c-1-1.2-1.4-2.5-1.7-4c0-8.9,0-17.8,0-26.7
		c0-0.1,0.1-0.3,0.1-0.4C3.8,4.5,4.7,3,6.1,1.7c1.2-1,2.5-1.4,4-1.7C19,0,27.9,0,36.8,0c0.1,0,0.2,0.1,0.4,0.1
		c1.9,0.3,3.4,1.2,4.7,2.7C42.7,4,43.1,5.3,43.5,6.8z M23.5,3.1c-4.1,0-8.1,0-12.2,0C8.2,3.1,6.4,4.9,6.4,8c0,8.1,0,16.1,0,24.2
		c0,3.1,1.8,4.9,4.9,4.9c8.1,0,16.1,0,24.2,0c3.1,0,4.9-1.8,4.9-4.9c0-8.1,0-16.1,0-24.2c0-3.1-1.8-4.9-4.9-4.9
		C31.5,3.1,27.5,3.1,23.5,3.1z"/>
	<path class="st0" d="M18.7,13.9c0-1,0-1.9,0-2.7c0-1.3,0.6-1.9,1.9-1.9c1.8,0,3.7,0,5.5,0c1.2,0,1.8,0.6,1.9,1.8c0,0.9,0,1.8,0,2.8
		c1.2,0,2.4,0,3.5,0c0.8,0,1.6,0,2.4,0c1.2,0,1.8,0.6,1.8,1.8c0,1.9,0,3.9,0,5.8c0,2.4,0,4.9,0,7.3c0,1.5-0.6,2-2,2
		c-0.8,0-1.7,0-2.6,0c0-1.1,0-2.2,0-3.2c0-0.6,0-1.2,0-1.8c0-0.6-0.1-1.1-0.8-1.1c-0.7,0-0.8,0.6-0.8,1.1c0,1.4,0,2.7,0,4.1
		c0,0.3,0,0.6,0,0.9c-1,0-2,0-3.1,0c0-1.5,0-3,0-4.6c0-0.3,0.1-0.6-0.1-0.8c-0.2-0.3-0.5-0.7-0.8-0.7s-0.7,0.4-0.7,0.7
		c-0.1,1,0,2.1,0,3.1c0,0.7,0,1.4,0,2.2c-1,0-2,0-3.1,0c0-1.1,0-2.3,0-3.4c0-0.5,0-1.1,0-1.6c0-0.6-0.1-1-0.8-1
		c-0.7,0-0.8,0.5-0.8,1c0,1.4,0,2.8,0,4.2c0,0.3,0,0.6,0,0.9c-1,0-2,0-3.1,0c0-1.5,0-2.9,0-4.4c0-0.3,0-0.6,0-0.9
		c0-0.5-0.3-0.8-0.8-0.8s-0.7,0.4-0.7,0.8c0,1.5,0,3.1,0,4.6c0,0.2,0,0.4,0,0.6c-1.2,0-2.3,0.1-3.4,0C11.4,30.7,11,30,11,29
		c0-3,0-6,0-8.9c0-1.4,0-2.8,0-4.2c0-1.3,0.6-1.9,1.9-1.9c1.6,0,3.2,0,4.9,0C18.1,13.9,18.4,13.9,18.7,13.9z"/>
</g>
<g class="st1">
	<path class="st2" d="M46.3,12.8c0.3,0.3,0.5,0.7,0.5,1.1c0,0.4-0.1,0.8-0.4,1.1L44,17.4c-0.3,0.3-0.6,0.4-1.1,0.5
		c-0.4,0-0.8-0.1-1.1-0.4c-2.6-2.3-5.5-4.1-8.7-5.2s-6.4-1.8-9.7-1.8c-3.2,0-6.5,0.6-9.7,1.8S7.6,15.2,5,17.5
		C4.7,17.9,4.3,18,3.9,18s-0.8-0.2-1-0.4l-2.4-2.4C0.1,14.8,0,14.4,0,14s0.1-0.8,0.4-1.1l0.1-0.1c3.1-2.8,6.7-5,10.6-6.5
		s8-2.3,12.3-2.2c4.2,0,8.3,0.7,12.3,2.2S43.2,10,46.3,12.8z M37.5,21.6c0.3,0.3,0.5,0.7,0.5,1.1s-0.1,0.8-0.4,1.2l-2.3,2.3
		c-0.3,0.3-0.6,0.4-1,0.5c-0.4,0-0.7-0.1-1-0.4c-2.9-2.4-6.1-3.5-9.8-3.5s-7,1.2-9.8,3.5c-0.3,0.3-0.7,0.4-1,0.4
		c-0.4,0-0.7-0.2-1-0.5l-2.3-2.3c-0.3-0.3-0.5-0.7-0.4-1.2c0-0.4,0.1-0.7,0.4-1l0.1-0.1c2-1.7,4.2-3,6.6-3.8
		c2.4-0.9,4.9-1.3,7.5-1.3s5.1,0.4,7.5,1.3C33.3,18.6,35.5,19.9,37.5,21.6z M23.4,26.8c1.3,0,2.4,0.5,3.3,1.4s1.4,2,1.4,3.3
		c0,1.3-0.5,2.4-1.4,3.3s-2,1.4-3.3,1.4s-2.4-0.5-3.3-1.4s-1.4-2-1.4-3.3s0.5-2.4,1.4-3.3C21,27.3,22.1,26.8,23.4,26.8z"/>
</g>
<g class="st1">
	<path class="st2" d="M7.1,37.7c0-10.8,0-21.5,0-32.3c0.1,0,0.1,0,0.2-0.1c2-1.8,4-3.5,5.9-5.3C21,0,28.8,0,36.5,0
		c1.4,0.5,2.3,1.5,2.6,2.9c0.3,1,0.5,2,0.5,3c0,10.2,0,20.4,0,30.6c0,0.3,0,0.5,0,0.8c-0.1,1.6-0.8,2.3-2.4,2.8
		c-0.1,0-0.2,0.1-0.2,0.1c-9,0-18.1,0-27.1,0c-0.5-0.2-1-0.3-1.5-0.6C7.6,39.2,7.4,38.4,7.1,37.7z M21.1,14.2c0,0.2,0,0.4,0,0.6
		c0,3.1,0,6.3,0,9.4c0,1.1,0.4,1.7,1.6,1.8c1.3,0.1,2.7,0.1,4,0c1.4-0.1,1.8-0.6,1.8-2c0-3,0-6.1,0-9.1c0-0.2,0-0.4,0-0.7
		C26.1,14.2,23.6,14.2,21.1,14.2z M24.7,35.2c2.9,0,5.7,0,8.5,0c1.2,0,1.5-0.3,1.5-1.4c0-2.9,0-5.7,0-8.6c0-0.2,0-0.4,0-0.6
		c-1.2,0-2.4,0-3.5,0c-0.5,1.7-0.8,2.2-1.6,2.8c-0.9,0.7-2,0.9-3.1,1c-0.6,0-1.2,0-1.8,0C24.7,30.7,24.7,32.9,24.7,35.2z M18.6,14.1
		c-1.7,0-3.3,0-5,0c-1.1,0-1.4,0.3-1.4,1.4c0,2,0,4.1,0,6.1c0,0.2,0,0.4,0,0.6c2.2,0,4.3,0,6.4,0C18.6,19.5,18.6,16.9,18.6,14.1z
		 M22.1,28.3c-0.3-0.1-0.6-0.2-0.9-0.3c-1.4-0.5-2.3-1.4-2.5-2.8c-0.1-0.7-0.4-0.7-0.9-0.5c0,3.5,0,7,0,10.5c1.5,0,2.9,0,4.3,0
		C22.1,32.9,22.1,30.6,22.1,28.3z M12.2,24.6c0,0.2,0,0.4,0,0.5c0,2.9,0,5.9,0,8.8c0,0.8,0.3,1.2,1,1.3c0.7,0,1.4,0,2.1,0
		c0-3.6,0-7.1,0-10.6C14.2,24.6,13.2,24.6,12.2,24.6z M34.6,22.2c0-2.4,0-4.7,0-7.1c0-0.5-0.3-0.9-0.9-1c-0.9-0.1-1.7,0-2.6,0
		c0,2.7,0,5.4,0,8.1C32.3,22.2,33.4,22.2,34.6,22.2z"/>
</g>
<g class="st1">
	<path class="st2" d="M40.4,10.5c0-1.5-0.3-2.7-0.5-3.6C39.1,4,37,1.8,34.2,0.8c-0.6-0.2-1.3-0.3-1.9-0.3H16.5c-1.5,0-2.9,0.5-4,1.5
		L12,2.5L9,5.2c-1.6,1.1-2.6,2.9-2.6,5V32c0,0.8,0.1,1.5,0.4,2.3v0.1c0.3,0.8,1.1,3,3.5,4.3c0.6,0.3,1.1,0.5,1.5,0.6l0.2,0.1
		c0.7,0.3,1.5,0.4,2.2,0.4h18.3c0.8,0,1.6-0.2,2.3-0.5c3.2-1.1,5.2-3.6,5.5-6.9c0-0.4,0-0.8,0-1.1v-4.1C40.4,21.6,40.4,16,40.4,10.5
		z M37.4,31.2c0,0.2,0,0.5,0,0.8c-0.2,2.2-1.5,3.7-3.6,4.4c-0.4,0.2-0.8,0.3-1.2,0.3H14.2c-0.4,0-0.8-0.1-1.1-0.2
		c-0.1,0-0.2-0.1-0.2-0.1c-0.3-0.1-0.7-0.2-1.1-0.5c-1.4-0.8-1.9-2.1-2.1-2.7c0-0.1,0-0.1-0.1-0.2c-0.1-0.4-0.2-0.7-0.2-1.1V10.2
		c0-1.1,0.6-2,1.4-2.6L14,4.8l0.6-0.5c0.5-0.5,1.3-0.8,2-0.8h15.7c0.3,0,0.7,0.1,1,0.2c1.9,0.6,3.2,2.1,3.7,4
		c0.2,0.7,0.4,1.7,0.4,2.8c0,5.5,0,11.1,0,16.6V31.2z"/>
	<polygon class="st2" points="20.9,17.6 20.9,17.6 20.9,22.6 20.9,22.6 25.9,22.6 25.9,22.6 25.9,17.6 25.9,17.6 	"/>
	<path class="st2" d="M34,8.4c-0.2-0.9-0.8-1.6-1.8-1.9c-5.2,0-10.5,0-15.7,0c-1.3,1.2-2.7,2.4-4,3.6h-0.1c0,7.3,0,14.5,0,21.8
		c0.2,0.5,0.3,1,0.8,1.3c0.3,0.2,0.7,0.3,1,0.4c6.1,0,12.2,0,18.3,0c0.1,0,0.1-0.1,0.2-0.1c1.1-0.3,1.6-0.8,1.6-1.9
		c0-0.2,0-0.4,0-0.5c0-6.9,0-13.8,0-20.7C34.4,9.8,34.2,9.1,34,8.4z M29.2,25.3c0,0.4-0.3,0.7-0.7,0.7H18.2c-0.4,0-0.7-0.3-0.7-0.7
		V14.9c0-0.4,0.3-0.7,0.7-0.7h10.3c0.4,0,0.7,0.3,0.7,0.7V25.3z"/>
</g>
</svg>
